# xmcd CD database file
#
# Track frame offsets:
#        150
#        13704
#        33612
#        67174
#        91063
#        114112
#        145635
#        164853
#        191008
#        205320
#        224570
#        241638
#        249729
#        268063
#        289150
#        313495
#        318802
#        344149
#
# Disc length: 4799 seconds
#
# Revision: 0
# Processed by: cddbd v1.5.2PL0 Copyright (c) Steve Scherf et al.
# Submitted via: CUERipper 2.1.5
#
DISCID=1e12bd12
DTITLE=Progres 2 - Dialog s vesmirem (live)
DYEAR=2006
DGENRE=Progressive Rock
TTITLE0=V zajeti pocitacu
TTITLE1=Zeme 2555
TTITLE2=Pisen o jablku
TTITLE3=Odlet
TTITLE4=Planeta Hieronyma Bosche I
TTITLE5=Planeta Hieronyma Bosche II
TTITLE6=Velka noc
TTITLE7=Hlasy stinu
TTITLE8=Muzeum planety Zeme
TTITLE9=More suchou nohou presel jsem
TTITLE10=Vesmirny kolotoc
TTITLE11=Sen o modre planete
TTITLE12=Hymna robotu
TTITLE13=Rozhovor s centralnim mozkem
TTITLE14=Jizdni drahy
TTITLE15=Honicka
TTITLE16=Vykrik v Proxima Centauri
TTITLE17=Mlade vdovy
EXTD=
EXTT0=
EXTT1=
EXTT2=
EXTT3=
EXTT4=
EXTT5=
EXTT6=
EXTT7=
EXTT8=
EXTT9=
EXTT10=
EXTT11=
EXTT12=
EXTT13=
EXTT14=
EXTT15=
EXTT16=
EXTT17=
PLAYORDER=
